<svg width="48" height="48" viewBox="0 0 48 48" fill="none" xmlns="http://www.w3.org/2000/svg">
<path fill-rule="evenodd" clip-rule="evenodd" d="M42.25 4.5C40.7312 4.5 39.5 5.73122 39.5 7.25C39.5 8.76878 40.7312 10 42.25 10C43.7688 10 45 8.76878 45 7.25C45 5.73122 43.7688 4.5 42.25 4.5ZM36.5 7.25C36.5 4.07436 39.0744 1.5 42.25 1.5C45.4256 1.5 48 4.07436 48 7.25C48 10.4256 45.4256 13 42.25 13C39.0744 13 36.5 10.4256 36.5 7.25Z" fill="#1B344B"/>
<path fill-rule="evenodd" clip-rule="evenodd" d="M42.25 38.5C40.7312 38.5 39.5 39.7312 39.5 41.25C39.5 42.7688 40.7312 44 42.25 44C43.7688 44 45 42.7688 45 41.25C45 39.7312 43.7688 38.5 42.25 38.5ZM36.5 41.25C36.5 38.0744 39.0744 35.5 42.25 35.5C45.4256 35.5 48 38.0744 48 41.25C48 44.4256 45.4256 47 42.25 47C39.0744 47 36.5 44.4256 36.5 41.25Z" fill="#1B344B"/>
<path fill-rule="evenodd" clip-rule="evenodd" d="M6.25 38.1396C4.73122 38.1396 3.5 39.3709 3.5 40.8896C3.5 42.4084 4.73122 43.6396 6.25 43.6396C7.76878 43.6396 9 42.4084 9 40.8896C9 39.3709 7.76878 38.1396 6.25 38.1396ZM0.5 40.8896C0.5 37.714 3.07436 35.1396 6.25 35.1396C9.42564 35.1396 12 37.714 12 40.8896C12 44.0653 9.42564 46.6396 6.25 46.6396C3.07436 46.6396 0.5 44.0653 0.5 40.8896Z" fill="#1B344B"/>
<path fill-rule="evenodd" clip-rule="evenodd" d="M41.84 16.0596C42.6684 16.0596 43.34 16.7311 43.34 17.5596V25.1382L44.6193 23.8589C45.2051 23.2731 46.1549 23.2731 46.7407 23.8589C47.3264 24.4447 47.3264 25.3944 46.7407 25.9802L42.9007 29.8202C42.6194 30.1015 42.2378 30.2596 41.84 30.2596C41.4422 30.2596 41.0606 30.1015 40.7793 29.8202L36.9393 25.9802C36.3536 25.3944 36.3536 24.4447 36.9393 23.8589C37.5251 23.2731 38.4749 23.2731 39.0607 23.8589L40.34 25.1382V17.5596C40.34 16.7311 41.0116 16.0596 41.84 16.0596Z" fill="#1B344B"/>
<path fill-rule="evenodd" clip-rule="evenodd" d="M34.2598 40.84C34.2598 41.6684 33.5882 42.34 32.7598 42.34L22.1811 42.34L23.4604 43.6193C24.0462 44.2051 24.0462 45.1549 23.4604 45.7407C22.8746 46.3264 21.9249 46.3264 21.3391 45.7407L17.4991 41.9007C17.2178 41.6194 17.0598 41.2378 17.0598 40.84C17.0598 40.4422 17.2178 40.0606 17.4991 39.7793L21.3391 35.9393C21.9249 35.3536 22.8746 35.3536 23.4604 35.9393C24.0462 36.5251 24.0462 37.4749 23.4604 38.0607L22.1811 39.34L32.7598 39.34C33.5882 39.34 34.2598 40.0116 34.2598 40.84Z" fill="#1B344B"/>
<path fill-rule="evenodd" clip-rule="evenodd" d="M35.5606 12.3487C36.1464 12.9344 36.1464 13.8842 35.5606 14.47L19.7765 30.255L21.5859 30.255C22.4143 30.255 23.0859 30.9265 23.0859 31.755C23.0859 32.5834 22.4143 33.255 21.5859 33.255L16.1553 33.255C15.7575 33.255 15.376 33.0969 15.0947 32.8156C14.8134 32.5343 14.6553 32.1528 14.6553 31.755L14.6553 26.3244C14.6553 25.496 15.3269 24.8244 16.1553 24.8244C16.9838 24.8244 17.6553 25.496 17.6553 26.3244L17.6553 28.1335L33.4393 12.3487C34.025 11.7629 34.9748 11.7629 35.5606 12.3487Z" fill="#1B344B"/>
<path d="M5.84539 8.1593C5.38902 8.1593 5.04416 8.51116 4.74523 8.85599C4.58996 9.0351 4.37734 9.1493 4.08 9.1493C3.39 9.1493 2.985 8.5493 2.985 6.9293C2.985 5.4893 3.36 4.7993 4.095 4.7993C4.36562 4.7993 4.56494 4.87587 4.7107 5.00575C5.08439 5.33875 5.42843 5.7893 5.92895 5.7893H6.79703C7.3677 5.7893 7.82592 5.29962 7.59572 4.77744C7.18581 3.84765 6.19673 2.8343 4.08 2.8343C1.47 2.8343 0 4.6643 0 7.0343C0 9.2693 1.215 11.0843 3.975 11.0843C5.96803 11.0843 6.99109 10.276 7.48919 9.28239C7.76644 8.72936 7.28113 8.1593 6.6625 8.1593H5.84539Z" fill="#1B344B"/>
<path d="M10.9562 10.8893C11.5085 10.8893 11.9562 10.4416 11.9562 9.8893V1.0293C11.9562 0.477013 11.5085 0.0292969 10.9562 0.0292969L10.0312 0.0292969C9.47889 0.0292969 9.03117 0.477012 9.03117 1.0293V9.8893C9.03117 10.4416 9.47889 10.8893 10.0312 10.8893H10.9562Z" fill="#1B344B"/>
<path d="M14.6461 3.0293C14.0938 3.0293 13.6461 3.47701 13.6461 4.0293V10.9043C13.6461 11.5943 13.4511 11.7893 12.8661 11.7893V11.7893C12.7667 11.7893 12.6861 11.8699 12.6861 11.9693V13.0636C12.6861 13.5277 13.047 13.9193 13.5111 13.9193V13.9193C16.1211 13.9193 16.5561 12.6893 16.5561 10.3343V4.0293C16.5561 3.47701 16.1084 3.0293 15.5561 3.0293H14.6461ZM15.5711 2.0543C16.1234 2.0543 16.5711 1.60658 16.5711 1.0543V1.0293C16.5711 0.477012 16.1234 0.0292969 15.5711 0.0292969L14.6461 0.0292969C14.0938 0.0292969 13.6461 0.477012 13.6461 1.0293V1.0543C13.6461 1.60658 14.0938 2.0543 14.6461 2.0543H15.5711Z" fill="#1B344B"/>
</svg>
